<svg width="20" height="20" viewBox="0 0 20 20" fill="none" xmlns="http://www.w3.org/2000/svg">
<path d="M2.49996 2.5L17.5 17.5M8.81995 8.82248C8.50722 9.13499 8.33144 9.55894 8.33128 10.0011C8.33113 10.4432 8.50661 10.8672 8.81912 11.18C9.13164 11.4927 9.55558 11.6685 9.9977 11.6687C10.4398 11.6688 10.8639 11.4933 11.1766 11.1808M7.80246 4.47083C8.51697 4.26643 9.25679 4.16403 9.99996 4.16667C13.3333 4.16667 16.1108 6.11083 18.3333 10C17.685 11.1342 16.99 12.1033 16.2475 12.9067M14.4641 14.4575C13.105 15.3742 11.6183 15.8333 9.99996 15.8333C6.66663 15.8333 3.88913 13.8892 1.66663 10C2.80746 8.00416 4.09413 6.52083 5.52663 5.54917" stroke="#A0AEC0" stroke-width="1.5" stroke-linecap="round" stroke-linejoin="round"/>
</svg>
