<svg width="38" height="38" viewBox="0 0 38 38" fill="none" xmlns="http://www.w3.org/2000/svg">
<rect x="0.5" y="0.5" width="37" height="37" rx="13.5" stroke="#1B85F3"/>
<path d="M14.833 14.8334H13.9997C13.5576 14.8334 13.1337 15.009 12.8212 15.3216C12.5086 15.6341 12.333 16.0581 12.333 16.5001V24.0001C12.333 24.4421 12.5086 24.866 12.8212 25.1786C13.1337 25.4912 13.5576 25.6668 13.9997 25.6668H21.4997C21.9417 25.6668 22.3656 25.4912 22.6782 25.1786C22.9907 24.866 23.1663 24.4421 23.1663 24.0001V23.1668M22.333 13.1668L24.833 15.6668M25.9872 14.4876C26.3154 14.1594 26.4998 13.7142 26.4998 13.2501C26.4998 12.7859 26.3154 12.3408 25.9872 12.0126C25.659 11.6844 25.2138 11.5 24.7497 11.5C24.2855 11.5 23.8404 11.6844 23.5122 12.0126L16.4997 19.0001V21.5001H18.9997L25.9872 14.4876Z" stroke="#1B85F3" stroke-width="1.5" stroke-linecap="round" stroke-linejoin="round"/>
</svg>
