<svg width="96" height="96" viewBox="0 0 96 96" fill="none" xmlns="http://www.w3.org/2000/svg">
<rect x="1.5" y="1.5" width="93" height="93" rx="46.5" stroke="#D1E6FF" stroke-width="3"/>
<path d="M36 66V62C36 59.8783 36.8429 57.8434 38.3431 56.3431C39.8434 54.8429 41.8783 54 44 54H52C54.1217 54 56.1566 54.8429 57.6569 56.3431C59.1571 57.8434 60 59.8783 60 62V66M56 38C56 42.4183 52.4183 46 48 46C43.5817 46 40 42.4183 40 38C40 33.5817 43.5817 30 48 30C52.4183 30 56 33.5817 56 38Z" stroke="#1B85F3" stroke-width="3" stroke-linecap="round" stroke-linejoin="round"/>
</svg>
